<svg xmlns="http://www.w3.org/2000/svg" width="1000" height="720" viewBox="0 0 1000 720">
  <defs>
    <linearGradient id="bg" x1="0" x2="1" y1="0" y2="1">
      <stop offset="0" stop-color="#f8f6ec"/>
      <stop offset="1" stop-color="#d7e7ec"/>
    </linearGradient>
    <linearGradient id="body" x1="0" x2="1" y1="0" y2="1">
      <stop offset="0" stop-color="#2b302a"/>
      <stop offset="1" stop-color="#10140f"/>
    </linearGradient>
    <filter id="shadow" x="-20%" y="-20%" width="140%" height="140%">
      <feDropShadow dx="18" dy="20" stdDeviation="0" flood-color="#d8ff4f" flood-opacity=".95"/>
    </filter>
  </defs>
  <rect width="1000" height="720" fill="url(#bg)"/>
  <g opacity=".45" stroke="#c8c4b5" stroke-width="2">
    <path d="M0 90h1000M0 180h1000M0 270h1000M0 360h1000M0 450h1000M0 540h1000M0 630h1000"/>
    <path d="M100 0v720M200 0v720M300 0v720M400 0v720M500 0v720M600 0v720M700 0v720M800 0v720M900 0v720"/>
  </g>
  <g filter="url(#shadow)">
    <rect x="150" y="210" width="700" height="360" rx="62" fill="url(#body)" stroke="#070907" stroke-width="16"/>
    <rect x="218" y="166" width="174" height="70" rx="24" fill="#10140f" stroke="#070907" stroke-width="14"/>
    <rect x="616" y="178" width="120" height="56" rx="20" fill="#d8ff4f" stroke="#070907" stroke-width="12"/>
    <circle cx="512" cy="392" r="148" fill="#d7e7ec" stroke="#070907" stroke-width="18"/>
    <circle cx="512" cy="392" r="92" fill="#10140f" stroke="#070907" stroke-width="14"/>
    <circle cx="512" cy="392" r="48" fill="#345264"/>
    <circle cx="530" cy="372" r="16" fill="#f8f6ec" opacity=".8"/>
    <rect x="222" y="285" width="122" height="58" rx="18" fill="#f8f6ec"/>
    <rect x="664" y="285" width="82" height="42" rx="14" fill="#ff765d"/>
  </g>
  <g transform="translate(132 96) rotate(-7)">
    <rect width="290" height="70" rx="18" fill="#ff765d" stroke="#070907" stroke-width="8"/>
    <text x="145" y="47" text-anchor="middle" font-family="Microsoft YaHei, PingFang SC, sans-serif" font-size="31" font-weight="900" fill="#070907">富士 X100V</text>
  </g>
</svg>
